<?xml version="1.0" encoding="utf-8"?>
<!-- Generator: Adobe Illustrator 16.0.0, SVG Export Plug-In . SVG Version: 6.00 Build 0)  -->
<!DOCTYPE svg PUBLIC "-//W3C//DTD SVG 1.1//EN" "http://www.w3.org/Graphics/SVG/1.1/DTD/svg11.dtd">
<svg version="1.1" id="Layer_1" xmlns="http://www.w3.org/2000/svg" xmlns:xlink="http://www.w3.org/1999/xlink" x="0px" y="0px"
	 width="275.334px" height="156.167px" viewBox="-92.334 0 275.334 156.167" enable-background="new -92.334 0 275.334 156.167"
	 xml:space="preserve">
<path fill="#0F34A2" fill-opacity="0.15" d="M140.167,72.001C164,72.001,183,84,183,97c0,36-52,25.168-136.667,59.168
	C73,136.667,75.333,102.333,87,91C105.174,73.345,124.5,71.95,140.167,72.001z"/>
<g>
	<g>
		<path opacity="0.55" fill="#0F34A2" enable-background="new    " d="M46.328,142.679c-3.426-22.596-15.006-39.506-25.417-54.708
			C10.763,73.154,2,60.357,2,45.167C2,5.113,35.933,2,46.333,2s44.333,3.113,44.333,43.167c0,15.163-8.739,27.886-18.857,42.618
			C61.363,102.994,49.743,119.908,46.328,142.679z"/>
		<path fill="none" stroke="#0F34A2" stroke-width="4" stroke-miterlimit="10" d="M46.328,142.679
			c-3.426-22.596-15.006-39.506-25.417-54.708C10.763,73.154,2,60.357,2,45.167C2,5.113,35.933,2,46.333,2
			s44.333,3.113,44.333,43.167c0,15.163-8.739,27.886-18.857,42.618C61.363,102.994,49.743,119.908,46.328,142.679z"/>
	</g>
	<circle cx="46.333" cy="43.917" r="15.75"/>
</g>
<path fill="none" d="M0,45.167"/>
<path fill="none" d="M-92.334,45.167"/>
</svg>
