<?xml version="1.0" encoding="UTF-8" standalone="no"?>
<svg width="50px" height="50px" viewBox="0 0 50 50" version="1.1" xmlns="http://www.w3.org/2000/svg" xmlns:xlink="http://www.w3.org/1999/xlink" xmlns:sketch="http://www.bohemiancoding.com/sketch/ns">
    <!-- Generator: Sketch 3.3.3 (12081) - http://www.bohemiancoding.com/sketch -->
    <title>doubleLight</title>
    <desc>Created with Sketch.</desc>
    <defs></defs>
    <g id="Studies" stroke="none" stroke-width="1" fill="none" fill-rule="evenodd" sketch:type="MSPage">
        <g id="Artboard-5" sketch:type="MSArtboardGroup" transform="translate(-47.000000, -336.000000)"></g>
        <g id="doubleLight" sketch:type="MSArtboardGroup" fill="#FFFFFF">
            <path d="M41.4250323,28.4090911 L37.9193548,28.4090911 C37.5454194,28.4090911 37.2419355,28.7138638 37.2419355,29.0909093 C37.2419355,29.4672729 37.5454194,29.7727274 37.9193548,29.7727274 L41.0483871,29.7727274 C41.0483871,30.2920178 41.1932484,30.7778242 41.4444433,31.1913684 C41.920818,31.9756283 42.7796175,32.5000002 43.7580645,32.5000002 C45.2517742,32.5000002 46.4677419,31.2768184 46.4677419,29.7727274 C46.4677419,28.2686365 45.2517742,27.0454547 43.7580645,27.0454547 C42.7595484,27.0454547 41.8951613,27.5977274 41.4250323,28.4090911 Z M43.7580645,31.1363638 C43.010871,31.1363638 42.4032258,30.5240911 42.4032258,29.7727274 C42.4032258,29.020682 43.010871,28.4090911 43.7580645,28.4090911 C44.5052581,28.4090911 45.1129032,29.020682 45.1129032,29.7727274 C45.1129032,30.5240911 44.5052581,31.1363638 43.7580645,31.1363638 L43.7580645,31.1363638 Z M31.1451613,27.9877274 C30.6479355,27.4150002 29.9258065,27.0454547 29.1129032,27.0454547 C28.1143871,27.0454547 27.25,27.5977274 26.779871,28.4090911 L23.016129,28.4090911 C22.6421935,28.4090911 22.3387097,28.7138638 22.3387097,29.0909093 C22.3387097,29.4672729 22.6421935,29.7727274 23.016129,29.7727274 L26.4032258,29.7727274 C26.4032258,31.2768184 27.6185161,32.5000002 29.1129032,32.5000002 C29.9258065,32.5000002 30.6479355,32.1304547 31.1451613,31.5577274 C31.6423871,32.1304547 32.3645161,32.5000002 33.1774194,32.5000002 C34.6718065,32.5000002 35.8870968,31.2768184 35.8870968,29.7727274 C35.8870968,28.2686365 34.6718065,27.0454547 33.1774194,27.0454547 C32.3645161,27.0454547 31.6423871,27.4150002 31.1451613,27.9877274 Z M29.1129032,31.1363638 C28.3657097,31.1363638 27.7580645,30.5240911 27.7580645,29.7727274 C27.7580645,29.020682 28.3657097,28.4090911 29.1129032,28.4090911 C29.8600968,28.4090911 30.4677419,29.020682 30.4677419,29.7727274 C30.4677419,30.5240911 29.8600968,31.1363638 29.1129032,31.1363638 L29.1129032,31.1363638 Z M31.8225806,29.7727274 C31.8225806,29.020682 32.4302258,28.4090911 33.1774194,28.4090911 C33.9246129,28.4090911 34.5322581,29.020682 34.5322581,29.7727274 C34.5322581,30.5240911 33.9246129,31.1363638 33.1774194,31.1363638 C32.4302258,31.1363638 31.8225806,30.5240911 31.8225806,29.7727274 Z M17.1451613,27.9877274 C16.6479355,27.4150002 15.9258065,27.0454547 15.1129032,27.0454547 C14.1143871,27.0454547 13.25,27.5977274 12.779871,28.4090911 L9.01612903,28.4090911 C8.64219355,28.4090911 8.33870968,28.7138638 8.33870968,29.0909093 C8.33870968,29.4672729 8.64219355,29.7727274 9.01612903,29.7727274 L12.4032258,29.7727274 C12.4032258,31.2768184 13.6185161,32.5000002 15.1129032,32.5000002 C15.9258065,32.5000002 16.6479355,32.1304547 17.1451613,31.5577274 C17.6423871,32.1304547 18.3645161,32.5000002 19.1774194,32.5000002 C20.6718065,32.5000002 21.8870968,31.2768184 21.8870968,29.7727274 C21.8870968,28.2686365 20.6718065,27.0454547 19.1774194,27.0454547 C18.3645161,27.0454547 17.6423871,27.4150002 17.1451613,27.9877274 Z M15.1129032,31.1363638 C14.3657097,31.1363638 13.7580645,30.5240911 13.7580645,29.7727274 C13.7580645,29.020682 14.3657097,28.4090911 15.1129032,28.4090911 C15.8600968,28.4090911 16.4677419,29.020682 16.4677419,29.7727274 C16.4677419,30.5240911 15.8600968,31.1363638 15.1129032,31.1363638 L15.1129032,31.1363638 Z M19.1774194,31.1363638 C18.4302258,31.1363638 17.8225806,30.5240911 17.8225806,29.7727274 C17.8225806,29.020682 18.4302258,28.4090911 19.1774194,28.4090911 C19.9246129,28.4090911 20.5322581,29.020682 20.5322581,29.7727274 C20.5322581,30.5240911 19.9246129,31.1363638 19.1774194,31.1363638 L19.1774194,31.1363638 Z M4.20967742,27.0454547 C2.5901171,27.0454547 1.5,28.2686365 1.5,29.7727274 C1.5,31.2768184 2.85280315,32.5000001 4.20967742,32.5000002 C5.56655169,32.5000002 6.79960537,31.3836868 6.79960537,29.7727275 C6.79960537,28.1617682 5.82923774,27.0454547 4.20967742,27.0454547 Z M4.20967742,31.1363638 C3.46248387,31.1363638 2.85483871,30.5240911 2.85483871,29.7727274 C2.85483871,29.020682 3.46248387,28.4090911 4.20967742,28.4090911 C4.95687097,28.4090911 5.56451613,29.020682 5.56451613,29.7727274 C5.56451613,30.5240911 4.95687097,31.1363638 4.20967742,31.1363638 L4.20967742,31.1363638 Z M48.5,29.0909093 C48.5,29.4672729 48.1965161,29.7727274 47.8225806,29.7727274 C47.4486452,29.7727274 47.1451613,29.4672729 47.1451613,29.0909093 L47.1451613,26.2143184 L43.2386129,24.9788638 C43.0279355,24.9263638 42.8551935,24.7750002 42.7739032,24.5711365 L41.5152581,21.4027274 L38.4691613,18.8636365 L35.9193548,18.8636365 L35.9193548,25.6818184 C35.9193548,26.058182 35.615871,26.3636365 35.2419355,26.3636365 C34.868,26.3636365 34.5645161,26.058182 34.5645161,25.6818184 L34.5645161,18.1818184 C34.5645161,17.8047729 34.868,17.5000002 35.2419355,17.5000002 L38.6290323,17.5000002 C38.7340323,17.5000002 38.8383548,17.5245456 38.9318387,17.5715911 L42.3511935,20.2988638 C42.4995484,20.3738638 42.6153871,20.500682 42.6777097,20.6561365 L43.9038387,23.7413638 L47.9871935,25.0204547 C48.2879677,25.0961365 48.5,25.3688638 48.5,25.6818184 L48.5,29.0909093 Z M37,24.5000002 C37,24.1229547 37.3034839,23.818182 37.6774194,23.818182 L39.3225806,23.818182 C39.6965161,23.818182 40,24.1229547 40,24.5000002 C40,24.8763638 39.6965161,25.1818184 39.3225806,25.1818184 C39.3225806,25.1818184 38.016129,25.1818184 37.6774194,25.1818184 C37.3387097,25.1818184 37,24.8763638 37,24.5000002 Z M33.8870968,25.6818184 C33.8870968,26.058182 33.5836129,26.3636365 33.2096774,26.3636365 L31.1774194,26.3636365 C30.8034839,26.3636365 30.5,26.058182 30.5,25.6818184 C30.5,25.3047729 30.8034839,25.0000002 31.1774194,25.0000002 L32.5322581,25.0000002 L32.5322581,18.8636365 L18.886012,18.8636362 L18.886012,24.9999998 L20.2408507,24.9999998 C20.6147862,24.9999998 20.9182701,25.3047726 20.9182701,25.681818 C20.9182701,26.0581816 20.6147862,26.3636362 20.2408507,26.3636362 L18.2085927,26.3636362 C17.8346572,26.3636362 17.5311733,26.0581816 17.5311733,25.681818 L17.5311733,18.181818 C17.5311733,17.8047726 17.8346572,17.4999998 18.2085927,17.4999998 L33.2096774,17.5000002 C33.5836129,17.5000002 33.8870968,17.8047729 33.8870968,18.1818184 L33.8870968,25.6818184 Z M16.8870968,25.6818184 C16.8870968,26.058182 16.5836129,26.3636365 16.2096774,26.3636365 L14.1774194,26.3636365 C13.8034839,26.3636365 13.5,26.058182 13.5,25.6818184 C13.5,25.3047729 13.8034839,25.0000002 14.1774194,25.0000002 L15.5322581,25.0000002 L15.5322581,18.8636365 L2.85483871,18.8636365 L2.85483871,25.0000002 L4.20967742,25.0000002 C4.5836129,25.0000002 4.88709677,25.3047729 4.88709677,25.6818184 C4.88709677,26.058182 4.5836129,26.3636365 4.20967742,26.3636365 L2.17741935,26.3636365 C1.80348387,26.3636365 1.5,26.058182 1.5,25.6818184 L1.5,18.1818184 C1.5,17.8047729 1.80348387,17.5000002 2.17741935,17.5000002 L16.2096774,17.5000002 C16.5836129,17.5000002 16.8870968,17.8047729 16.8870968,18.1818184 L16.8870968,25.6818184 Z" id="Semi-Copy-2" sketch:type="MSShapeGroup"></path>
        </g>
        <g id="tankLight" sketch:type="MSArtboardGroup" transform="translate(49.000000, 0.000000)"></g>
    </g>
</svg>