<?xml version="1.0" encoding="UTF-8" standalone="no"?>
<svg width="47px" height="15px" viewBox="0 0 47 15" version="1.1" xmlns="http://www.w3.org/2000/svg" xmlns:xlink="http://www.w3.org/1999/xlink" xmlns:sketch="http://www.bohemiancoding.com/sketch/ns">
    <!-- Generator: Sketch 3.3.3 (12081) - http://www.bohemiancoding.com/sketch -->
    <title>doubleTrailerActive</title>
    <desc>Created with Sketch.</desc>
    <defs></defs>
    <g id="Studies" stroke="none" stroke-width="1" fill="none" fill-rule="evenodd" sketch:type="MSPage">
        <g id="Artboard-5" sketch:type="MSArtboardGroup" transform="translate(-85.000000, -300.000000)" fill="#FFFFFF">
            <g id="doubleTrailerActive" sketch:type="MSLayerGroup" transform="translate(85.000000, 299.000000)">
                <path d="M39.9250323,11.9090909 L36.4193548,11.9090909 C36.0454194,11.9090909 35.7419355,12.2138636 35.7419355,12.5909091 C35.7419355,12.9672727 36.0454194,13.2727273 36.4193548,13.2727273 L39.5483871,13.2727273 C39.5483871,13.7920177 39.6932484,14.277824 39.9444433,14.6913683 C40.420818,15.4756281 41.2796175,16 42.2580645,16 C43.7517742,16 44.9677419,14.7768182 44.9677419,13.2727273 C44.9677419,11.7686364 43.7517742,10.5454545 42.2580645,10.5454545 C41.2595484,10.5454545 40.3951613,11.0977273 39.9250323,11.9090909 Z M42.2580645,14.6363636 C41.510871,14.6363636 40.9032258,14.0240909 40.9032258,13.2727273 C40.9032258,12.5206818 41.510871,11.9090909 42.2580645,11.9090909 C43.0052581,11.9090909 43.6129032,12.5206818 43.6129032,13.2727273 C43.6129032,14.0240909 43.0052581,14.6363636 42.2580645,14.6363636 L42.2580645,14.6363636 Z M29.6451613,11.4877273 C29.1479355,10.915 28.4258065,10.5454545 27.6129032,10.5454545 C26.6143871,10.5454545 25.75,11.0977273 25.279871,11.9090909 L21.516129,11.9090909 C21.1421935,11.9090909 20.8387097,12.2138636 20.8387097,12.5909091 C20.8387097,12.9672727 21.1421935,13.2727273 21.516129,13.2727273 L24.9032258,13.2727273 C24.9032258,14.7768182 26.1185161,16 27.6129032,16 C28.4258065,16 29.1479355,15.6304545 29.6451613,15.0577273 C30.1423871,15.6304545 30.8645161,16 31.6774194,16 C33.1718065,16 34.3870968,14.7768182 34.3870968,13.2727273 C34.3870968,11.7686364 33.1718065,10.5454545 31.6774194,10.5454545 C30.8645161,10.5454545 30.1423871,10.915 29.6451613,11.4877273 Z M27.6129032,14.6363636 C26.8657097,14.6363636 26.2580645,14.0240909 26.2580645,13.2727273 C26.2580645,12.5206818 26.8657097,11.9090909 27.6129032,11.9090909 C28.3600968,11.9090909 28.9677419,12.5206818 28.9677419,13.2727273 C28.9677419,14.0240909 28.3600968,14.6363636 27.6129032,14.6363636 L27.6129032,14.6363636 Z M30.3225806,13.2727273 C30.3225806,12.5206818 30.9302258,11.9090909 31.6774194,11.9090909 C32.4246129,11.9090909 33.0322581,12.5206818 33.0322581,13.2727273 C33.0322581,14.0240909 32.4246129,14.6363636 31.6774194,14.6363636 C30.9302258,14.6363636 30.3225806,14.0240909 30.3225806,13.2727273 Z M15.6451613,11.4877273 C15.1479355,10.915 14.4258065,10.5454545 13.6129032,10.5454545 C12.6143871,10.5454545 11.75,11.0977273 11.279871,11.9090909 L7.51612903,11.9090909 C7.14219355,11.9090909 6.83870968,12.2138636 6.83870968,12.5909091 C6.83870968,12.9672727 7.14219355,13.2727273 7.51612903,13.2727273 L10.9032258,13.2727273 C10.9032258,14.7768182 12.1185161,16 13.6129032,16 C14.4258065,16 15.1479355,15.6304545 15.6451613,15.0577273 C16.1423871,15.6304545 16.8645161,16 17.6774194,16 C19.1718065,16 20.3870968,14.7768182 20.3870968,13.2727273 C20.3870968,11.7686364 19.1718065,10.5454545 17.6774194,10.5454545 C16.8645161,10.5454545 16.1423871,10.915 15.6451613,11.4877273 Z M13.6129032,14.6363636 C12.8657097,14.6363636 12.2580645,14.0240909 12.2580645,13.2727273 C12.2580645,12.5206818 12.8657097,11.9090909 13.6129032,11.9090909 C14.3600968,11.9090909 14.9677419,12.5206818 14.9677419,13.2727273 C14.9677419,14.0240909 14.3600968,14.6363636 13.6129032,14.6363636 L13.6129032,14.6363636 Z M17.6774194,14.6363636 C16.9302258,14.6363636 16.3225806,14.0240909 16.3225806,13.2727273 C16.3225806,12.5206818 16.9302258,11.9090909 17.6774194,11.9090909 C18.4246129,11.9090909 19.0322581,12.5206818 19.0322581,13.2727273 C19.0322581,14.0240909 18.4246129,14.6363636 17.6774194,14.6363636 L17.6774194,14.6363636 Z M2.70967742,10.5454545 C1.0901171,10.5454545 0,11.7686364 0,13.2727273 C0,14.7768182 1.35280315,16 2.70967742,16 C4.06655169,16 5.29960537,14.8836866 5.29960537,13.2727273 C5.29960537,11.661768 4.32923774,10.5454545 2.70967742,10.5454545 Z M2.70967742,14.6363636 C1.96248387,14.6363636 1.35483871,14.0240909 1.35483871,13.2727273 C1.35483871,12.5206818 1.96248387,11.9090909 2.70967742,11.9090909 C3.45687097,11.9090909 4.06451613,12.5206818 4.06451613,13.2727273 C4.06451613,14.0240909 3.45687097,14.6363636 2.70967742,14.6363636 L2.70967742,14.6363636 Z M47,12.5909091 C47,12.9672727 46.6965161,13.2727273 46.3225806,13.2727273 C45.9486452,13.2727273 45.6451613,12.9672727 45.6451613,12.5909091 L45.6451613,9.71431818 L41.7386129,8.47886364 C41.5279355,8.42636364 41.3551935,8.275 41.2739032,8.07113636 L40.0152581,4.90272727 L36.9691613,2.36363636 L34.4193548,2.36363636 L34.4193548,9.18181818 C34.4193548,9.55818182 34.115871,9.86363636 33.7419355,9.86363636 C33.368,9.86363636 33.0645161,9.55818182 33.0645161,9.18181818 L33.0645161,1.68181818 C33.0645161,1.30477273 33.368,1 33.7419355,1 L37.1290323,1 C37.2340323,1 37.3383548,1.02454545 37.4318387,1.07159091 L40.8511935,3.79886364 C40.9995484,3.87386364 41.1153871,4.00068182 41.1777097,4.15613636 L42.4038387,7.24136364 L46.4871935,8.52045455 C46.7879677,8.59613636 47,8.86886364 47,9.18181818 L47,12.5909091 Z M35.5,8.00000001 C35.5,7.62295456 35.8034839,7.31818183 36.1774194,7.31818183 L37.8225806,7.31818183 C38.1965161,7.31818183 38.5,7.62295456 38.5,8.00000001 C38.5,8.37636365 38.1965161,8.68181819 37.8225806,8.68181819 C37.8225806,8.68181819 36.516129,8.6818182 36.1774194,8.68181819 C35.8387097,8.68181818 35.5,8.37636365 35.5,8.00000001 Z M32.3870968,9.18181818 C32.3870968,9.55818182 32.0836129,9.86363636 31.7096774,9.86363636 L29.6774194,9.86363636 C29.3034839,9.86363636 29,9.55818182 29,9.18181818 C29,8.80477273 29.3034839,8.5 29.6774194,8.5 L31.0322581,8.5 L31.0322581,2.36363636 L17.386012,2.36363602 L17.386012,8.49999965 L18.7408507,8.49999965 C19.1147862,8.49999965 19.4182701,8.80477238 19.4182701,9.18181784 C19.4182701,9.55818147 19.1147862,9.86363602 18.7408507,9.86363602 L16.7085927,9.86363602 C16.3346572,9.86363602 16.0311733,9.55818147 16.0311733,9.18181784 L16.0311733,1.68181784 C16.0311733,1.30477238 16.3346572,0.999999653 16.7085927,0.999999653 L31.7096774,1 C32.0836129,1 32.3870968,1.30477273 32.3870968,1.68181818 L32.3870968,9.18181818 Z M15.3870968,9.18181818 C15.3870968,9.55818182 15.0836129,9.86363636 14.7096774,9.86363636 L12.6774194,9.86363636 C12.3034839,9.86363636 12,9.55818182 12,9.18181818 C12,8.80477273 12.3034839,8.5 12.6774194,8.5 L14.0322581,8.5 L14.0322581,2.36363636 L1.35483871,2.36363636 L1.35483871,8.5 L2.70967742,8.5 C3.0836129,8.5 3.38709677,8.80477273 3.38709677,9.18181818 C3.38709677,9.55818182 3.0836129,9.86363636 2.70967742,9.86363636 L0.677419355,9.86363636 C0.303483871,9.86363636 0,9.55818182 0,9.18181818 L0,1.68181818 C0,1.30477273 0.303483871,1 0.677419355,1 L14.7096774,1 C15.0836129,1 15.3870968,1.30477273 15.3870968,1.68181818 L15.3870968,9.18181818 Z" id="Semi-Copy-2" sketch:type="MSShapeGroup"></path>
            </g>
        </g>
    </g>
</svg>