<?xml version="1.0" encoding="UTF-8" standalone="no"?>
<svg width="42px" height="42px" viewBox="0 0 42 42" version="1.1" xmlns="http://www.w3.org/2000/svg" xmlns:xlink="http://www.w3.org/1999/xlink" xmlns:sketch="http://www.bohemiancoding.com/sketch/ns">
    <!-- Generator: Sketch 3.3.3 (12081) - http://www.bohemiancoding.com/sketch -->
    <title>hazardousMaterialsActive</title>
    <desc>Created with Sketch.</desc>
    <defs></defs>
    <g id="Studies" stroke="none" stroke-width="1" fill="none" fill-rule="evenodd" sketch:type="MSPage">
        <g id="Artboard-5" sketch:type="MSArtboardGroup" transform="translate(-143.000000, -363.000000)" stroke="#FFFFFF">
            <g id="hazardousMaterialsActive" sketch:type="MSLayerGroup" transform="translate(143.000000, 363.000000)">
                <path d="M21.3065659,29.8180115 C21.2877276,29.818125 21.2688722,29.8181818 21.25,29.8181818 C17.2459356,29.8181818 14,27.260778 14,24.1060606 C14,22.4958189 15.7575758,21.0303031 16.6363636,15.3181819 C17.5151515,17.5151516 17.9545455,17.0757576 18.3939394,19.7121212 C19.2727273,16.1969697 20.5909091,16.6363637 19.7121212,11.3636364 C20.3414406,12.2486222 23.2272727,19.2727273 23.2272727,19.2727273 C23.2272727,19.2727273 23.2272727,15.3181819 24.5454545,14.439394 C24.9848485,18.8333334 28.5,21.0303031 28.5,24.1060606 C28.5,24.5924783 28.4228319,25.0646956 28.2776151,25.5155276 C27.5995334,27.6206618 25.4377376,29.2595168 22.7206778,29.7005868 C22.2912437,29.7772035 21.8357997,29.8181818 21.3598485,29.8181818 C21.3420665,29.8181818 21.3243055,29.8181249 21.3065659,29.8180115 Z M21.3065659,29.8180115 C21.7907061,29.8150967 22.2635505,29.7747939 22.7206778,29.7005868 C24.8639431,29.3182001 26.3593233,28.0480915 26.5227273,26.5541125 C26.7424242,24.5454545 25.8636363,23.2272727 24.6453168,21.5324675 C24.0195133,22.7878788 24.1060606,24.0432898 23.3937098,24.04329 C22.7878788,24.0432898 21.0303032,22.7878787 21.0303032,19.2727272 C19.7121213,20.6536796 20.1515152,24.9848484 19.2727273,24.9848484 C18.3939394,24.9848484 18.0144628,22.8506493 17.0757576,22.3484848 C16.7628558,24.8593073 16.1969697,24.7965368 16.1969697,26.5541125 C16.1969697,26.8320655 16.2519227,27.1019039 16.3553347,27.3595222 C16.9184303,28.762297 18.9183268,29.8027451 21.3065659,29.8180115 Z" id="Oval-134" sketch:type="MSShapeGroup"></path>
                <path d="M1.20402078,23.8314378 C-0.359739126,22.2676779 -0.362383512,19.7349665 1.20402078,18.1685622 L18.1685622,1.20402078 C19.7323221,-0.359739126 22.2650335,-0.362383512 23.8314378,1.20402078 L40.7959792,18.1685622 C42.3597391,19.7323221 42.3623835,22.2650335 40.7959792,23.8314378 L23.8314378,40.7959792 C22.2676779,42.3597391 19.7349665,42.3623835 18.1685622,40.7959792 L1.20402078,23.8314378 Z M6.44802434,22.4185871 C5.66456032,21.6351231 5.65607923,20.373358 6.44802434,19.5814129 L19.5961315,6.43330571 C20.3795956,5.6498417 21.6413606,5.6413606 22.4333057,6.43330571 L35.5814129,19.5814129 C36.3648769,20.3648769 36.373358,21.626642 35.5814129,22.4185871 L22.4333057,35.5666943 C21.6498417,36.3501583 20.3880767,36.3586394 19.5961315,35.5666943 L6.44802434,22.4185871 Z" id="Rectangle-43-Copy-2" stroke-width="1.4" sketch:type="MSShapeGroup"></path>
            </g>
        </g>
    </g>
</svg>