<?xml version="1.0" encoding="UTF-8" standalone="no"?>
<svg width="50px" height="50px" viewBox="0 0 50 50" version="1.1" xmlns="http://www.w3.org/2000/svg" xmlns:xlink="http://www.w3.org/1999/xlink" xmlns:sketch="http://www.bohemiancoding.com/sketch/ns">
    <!-- Generator: Sketch 3.3.3 (12081) - http://www.bohemiancoding.com/sketch -->
    <title>hazMatLight</title>
    <desc>Created with Sketch.</desc>
    <defs></defs>
    <g id="Studies" stroke="none" stroke-width="1" fill="none" fill-rule="evenodd" sketch:type="MSPage">
        <g id="Artboard-5" sketch:type="MSArtboardGroup" transform="translate(-194.000000, -336.000000)"></g>
        <g id="passLight" sketch:type="MSArtboardGroup" transform="translate(-48.000000, 0.000000)"></g>
        <g id="tankHazLight" sketch:type="MSArtboardGroup" transform="translate(49.000000, -1.000000)"></g>
        <g id="hazMatLight" sketch:type="MSArtboardGroup" stroke="#FFFFFF">
            <path d="M25.3367749,33.4845841 C25.3179366,33.4846976 25.2990812,33.4847544 25.280209,33.4847544 C21.2761446,33.4847544 18.030209,30.9273506 18.030209,27.7726332 C18.030209,26.1623915 19.7877848,24.6968757 20.6665726,18.9847544 C21.5453605,21.1817242 21.9847544,20.7423302 22.4241484,23.3786938 C23.3029363,19.8635423 24.6211181,20.3029363 23.7423302,15.030209 C24.3716496,15.9151948 27.2574817,22.9392999 27.2574817,22.9392999 C27.2574817,22.9392999 27.2574817,18.9847544 28.5756635,18.1059666 C29.0150575,22.499906 32.530209,24.6968757 32.530209,27.7726332 C32.530209,28.2590509 32.4530409,28.7312682 32.3078241,29.1821002 C31.6297424,31.2872344 29.4679466,32.9260894 26.7508868,33.3671594 C26.3214527,33.4437761 25.8660087,33.4847544 25.3900575,33.4847544 C25.3722755,33.4847544 25.3545145,33.4846975 25.3367749,33.4845841 Z M25.3367749,33.4845841 C25.820915,33.4816693 26.2937595,33.4413665 26.7508868,33.3671594 C28.8941521,32.9847727 30.3895323,31.7146641 30.5529363,30.2206851 C30.7726332,28.2120271 29.8938453,26.8938453 28.6755258,25.1990401 C28.0497223,26.4544514 28.1362696,27.7098624 27.4239188,27.7098626 C26.8180878,27.7098624 25.0605121,26.4544513 25.0605121,22.9392998 C23.7423303,24.3202522 24.1817241,28.651421 23.3029363,28.651421 C22.4241484,28.651421 22.0446718,26.5172219 21.1059666,26.0150574 C20.7930648,28.5258799 20.2271787,28.4631094 20.2271787,30.2206851 C20.2271787,30.4986381 20.2821317,30.7684765 20.3855437,31.0260948 C20.9486393,32.4288696 22.9485357,33.4693177 25.3367749,33.4845841 Z" id="Oval-134" sketch:type="MSShapeGroup"></path>
            <path d="M5.20402078,27.8314378 C3.64026087,26.2676779 3.63761649,23.7349665 5.20402078,22.1685622 L22.1685622,5.20402078 C23.7323221,3.64026087 26.2650335,3.63761649 27.8314378,5.20402078 L44.7959792,22.1685622 C46.3597391,23.7323221 46.3623835,26.2650335 44.7959792,27.8314378 L27.8314378,44.7959792 C26.2676779,46.3597391 23.7349665,46.3623835 22.1685622,44.7959792 L5.20402078,27.8314378 Z M10.4480243,26.4185871 C9.66456032,25.6351231 9.65607923,24.373358 10.4480243,23.5814129 L23.5961315,10.4333057 C24.3795956,9.6498417 25.6413606,9.6413606 26.4333057,10.4333057 L39.5814129,23.5814129 C40.3648769,24.3648769 40.373358,25.626642 39.5814129,26.4185871 L26.4333057,39.5666943 C25.6498417,40.3501583 24.3880767,40.3586394 23.5961315,39.5666943 L10.4480243,26.4185871 Z" id="Rectangle-43-Copy-2" stroke-width="1.4" sketch:type="MSShapeGroup"></path>
        </g>
    </g>
</svg>