<?xml version="1.0" encoding="UTF-8" standalone="no"?>
<svg width="50px" height="50px" viewBox="0 0 50 50" version="1.1" xmlns="http://www.w3.org/2000/svg" xmlns:xlink="http://www.w3.org/1999/xlink" xmlns:sketch="http://www.bohemiancoding.com/sketch/ns">
    <!-- Generator: Sketch 3.3.3 (12081) - http://www.bohemiancoding.com/sketch -->
    <title>passDark</title>
    <desc>Created with Sketch.</desc>
    <defs></defs>
    <g id="Studies" stroke="none" stroke-width="1" fill="none" fill-rule="evenodd" sketch:type="MSPage">
        <g id="Artboard-5" sketch:type="MSArtboardGroup" transform="translate(-146.000000, -286.000000)"></g>
        <g id="passDark" sketch:type="MSArtboardGroup" fill="#4D4951">
            <path d="M32.4065606,34.8767857 L32.4065606,33.2303347 C34.2241854,33.2303347 35.6983652,31.7556062 35.6983652,29.93853 C35.6983652,28.1198079 34.2241854,26.6467253 32.4065606,26.6467253 L32.1042632,26.6467253 C31.8859068,26.0311578 31.5534345,25.4764887 31.1249513,24.9997257 L32.4065606,24.9997257 C35.1338207,24.9997257 37.3442676,27.2112698 37.3442676,29.93853 C37.3442676,32.6657902 35.1332721,34.8767857 32.4065606,34.8767857 L32.4065606,34.8767857 Z M31.021808,24.876283 C30.7134757,24.555332 30.359058,24.2886959 29.9744655,24.0610127 C30.072671,23.8174192 30.1659388,23.5710824 30.2471367,23.3181621 C32.3725452,23.1244943 34.0524629,21.0171906 34.0524629,18.4177622 C34.0524629,15.690502 32.2101495,13.4800552 29.937707,13.4800552 C29.4900216,13.4800552 29.0670247,13.5864902 28.66323,13.7450454 C28.3104583,13.2841928 27.9203794,12.8579041 27.4973825,12.4733116 C28.2402331,12.0739059 29.0615384,11.8336042 29.937707,11.8336042 C33.1186876,11.8336042 35.6983652,14.7814153 35.6983652,18.4177622 C35.6983652,21.6289177 33.6837808,24.2947308 31.021808,24.876283 L31.021808,24.876283 Z M27.393142,25.2795291 C29.3451822,25.9384387 30.7606582,27.764293 30.7606582,29.93853 L30.7606582,33.2303347 C30.7606582,35.9570462 28.5502114,38.1669444 25.8229512,38.1669444 L17.5934394,38.1669444 C14.8667279,38.1669444 12.6557324,35.9570462 12.6557324,33.2303347 L12.6557324,29.93853 C12.6557324,27.764293 14.0712084,25.9384387 16.0232486,25.2795291 C14.9638361,23.8558236 14.3016348,22.0541091 14.3016348,20.0625673 C14.3016348,15.5171336 17.6175793,11.8330556 21.7081953,11.8330556 C25.7988113,11.8330556 29.1147559,15.5171336 29.1147559,20.0625673 C29.1147559,22.0541091 28.4520059,23.8558236 27.393142,25.2795291 L27.393142,25.2795291 Z M14.3016348,29.93853 L14.3016348,33.2303347 C14.3016348,35.0474109 15.775266,36.5221394 17.5934394,36.5221394 L25.8229512,36.5221394 C27.640576,36.5221394 29.1147559,35.0474109 29.1147559,33.2303347 L29.1147559,29.93853 C29.1147559,28.2092353 27.7771859,26.8074751 26.0830037,26.6725111 C24.854612,27.6781574 23.3513545,28.2926276 21.7081953,28.2926276 C20.0650361,28.2926276 18.5617787,27.6781574 17.3328382,26.6725111 C15.6392047,26.8074751 14.3016348,28.2092353 14.3016348,29.93853 L14.3016348,29.93853 Z M21.7081953,13.4795065 C18.5261174,13.4795065 15.9475371,16.4262204 15.9475371,20.0625673 C15.9475371,23.6989142 18.5266661,26.6467253 21.7081953,26.6467253 C24.8897245,26.6467253 27.4688535,23.6989142 27.4688535,20.0625673 C27.4688535,16.4262204 24.8897245,13.4795065 21.7081953,13.4795065 L21.7081953,13.4795065 Z" id="icn" sketch:type="MSShapeGroup"></path>
        </g>
        <g id="hazMatDark" sketch:type="MSArtboardGroup" transform="translate(48.000000, 0.000000)"></g>
    </g>
</svg>