<?xml version="1.0" encoding="UTF-8" standalone="no"?>
<svg width="44px" height="16px" viewBox="0 0 44 16" version="1.1" xmlns="http://www.w3.org/2000/svg" xmlns:xlink="http://www.w3.org/1999/xlink" xmlns:sketch="http://www.bohemiancoding.com/sketch/ns">
    <!-- Generator: Sketch 3.3.3 (12081) - http://www.bohemiancoding.com/sketch -->
    <title>tankHazardousActive</title>
    <desc>Created with Sketch.</desc>
    <defs></defs>
    <g id="Studies" stroke="none" stroke-width="1" fill="none" fill-rule="evenodd" sketch:type="MSPage">
        <g id="Artboard-5" sketch:type="MSArtboardGroup" transform="translate(-246.000000, -375.000000)" fill="#FFFFFF">
            <g id="tankHazardousActive" sketch:type="MSLayerGroup" transform="translate(246.000000, 375.000000)">
                <g id="Semi-Copy-3-+-HZMT">
                    <path d="M38.6588084,9.68181816 C37.6602922,9.68181816 36.7959051,10.2340909 36.3257761,11.0454545 L27.8200987,11.0454545 C27.4461632,11.0454545 27.1426793,11.3502273 27.1426793,11.7272727 C27.1426793,12.1036363 27.4461632,12.4090909 27.8200987,12.4090909 L35.9491309,12.4090909 C35.9491309,13.9131818 37.1644213,15.1363636 38.6588084,15.1363636 C40.152518,15.1363636 41.3684858,13.9131818 41.3684858,12.4090909 C41.3684858,10.905 40.152518,9.68181816 38.6588084,9.68181816 L38.6588084,9.68181816 Z M38.6588084,13.7727273 C37.9116148,13.7727273 37.3039696,13.1604545 37.3039696,12.4090909 C37.3039696,11.6570454 37.9116148,11.0454545 38.6588084,11.0454545 C39.4060019,11.0454545 40.0136471,11.6570454 40.0136471,12.4090909 C40.0136471,13.1604545 39.4060019,13.7727273 38.6588084,13.7727273 L38.6588084,13.7727273 Z M23.0781632,9.68181816 C22.26526,9.68181816 21.5431309,10.0513636 21.0459051,10.6240909 C20.5486793,10.0513636 19.8265503,9.68181816 19.0136471,9.68181816 C18.0151309,9.68181816 17.1507438,10.2340909 16.6806148,11.0454545 L12.9168729,11.0454545 C12.5429374,11.0454545 12.2394535,11.3502273 12.2394535,11.7272727 C12.2394535,12.1036363 12.5429374,12.4090909 12.9168729,12.4090909 L16.3039696,12.4090909 C16.3039696,13.9131818 17.51926,15.1363636 19.0136471,15.1363636 C19.8265503,15.1363636 20.5486793,14.7668182 21.0459051,14.1940909 C21.5431309,14.7668182 22.26526,15.1363636 23.0781632,15.1363636 C24.5725503,15.1363636 25.7878406,13.9131818 25.7878406,12.4090909 C25.7878406,10.905 24.5725503,9.68181816 23.0781632,9.68181816 L23.0781632,9.68181816 Z M19.0136471,13.7727273 C18.2664535,13.7727273 17.6588084,13.1604545 17.6588084,12.4090909 C17.6588084,11.6570454 18.2664535,11.0454545 19.0136471,11.0454545 C19.7608406,11.0454545 20.3684858,11.6570454 20.3684858,12.4090909 C20.3684858,13.1604545 19.7608406,13.7727273 19.0136471,13.7727273 L19.0136471,13.7727273 Z M23.0781632,13.7727273 C22.3309696,13.7727273 21.7233245,13.1604545 21.7233245,12.4090909 C21.7233245,11.6570454 22.3309696,11.0454545 23.0781632,11.0454545 C23.8253567,11.0454545 24.4330019,11.6570454 24.4330019,12.4090909 C24.4330019,13.1604545 23.8253567,13.7727273 23.0781632,13.7727273 L23.0781632,13.7727273 Z M8.17493739,9.68181816 C7.36203416,9.68181816 6.63990513,10.0513636 6.14267933,10.6240909 C5.64545352,10.0513636 4.92332449,9.68181816 4.11042126,9.68181816 C2.61603416,9.68181816 1.40074384,10.905 1.40074384,12.4090909 C1.40074384,13.9131818 2.61603416,15.1363636 4.11042126,15.1363636 C4.92332449,15.1363636 5.64545352,14.7668182 6.14267933,14.1940909 C6.63990513,14.7668182 7.36203416,15.1363636 8.17493739,15.1363636 C9.66864707,15.1363636 10.8846148,13.9131818 10.8846148,12.4090909 C10.8846148,10.905 9.66864707,9.68181816 8.17493739,9.68181816 L8.17493739,9.68181816 Z M4.11042126,13.7727273 C3.36322771,13.7727273 2.75558255,13.1604545 2.75558255,12.4090909 C2.75558255,11.6570454 3.36322771,11.0454545 4.11042126,11.0454545 C4.85761481,11.0454545 5.46525997,11.6570454 5.46525997,12.4090909 C5.46525997,13.1604545 4.85761481,13.7727273 4.11042126,13.7727273 L4.11042126,13.7727273 Z M8.17493739,13.7727273 C7.42774384,13.7727273 6.82009868,13.1604545 6.82009868,12.4090909 C6.82009868,11.6570454 7.42774384,11.0454545 8.17493739,11.0454545 C8.92213094,11.0454545 9.5297761,11.6570454 9.5297761,12.4090909 C9.5297761,13.1604545 8.92213094,13.7727273 8.17493739,13.7727273 L8.17493739,13.7727273 Z M32.5620342,7.63636362 C32.1880987,7.63636362 31.8846148,7.33090907 31.8846148,6.95454544 C31.8846148,6.57749998 32.1880987,6.27272725 32.5620342,6.27272725 L34.5942922,6.27272725 C34.9682277,6.27272725 35.2717116,6.57749998 35.2717116,6.95454544 C35.2717116,7.33090907 34.9682277,7.63636362 34.5942922,7.63636362 L32.5620342,7.63636362 L32.5620342,7.63636362 Z M43.4007438,8.3181818 L43.4007438,11.7272727 C43.4007438,12.1036363 43.09726,12.4090909 42.7233245,12.4090909 C42.349389,12.4090909 42.0459051,12.1036363 42.0459051,11.7272727 L42.0459051,8.8506818 L37.1393567,7.61522725 C36.9286793,7.56272725 36.7559374,7.41136362 36.6746471,7.20749998 L35.4160019,4.03909089 L30.3699051,1.49999998 L27.8200987,1.49999998 L27.8200987,8.3181818 C27.8200987,8.69454544 27.5166148,8.99999998 27.1426793,8.99999998 C26.7687438,8.99999998 26.46526,8.69454544 26.46526,8.3181818 L26.46526,0.818181799 C26.46526,0.441136344 26.7687438,0.136363617 27.1426793,0.136363617 L30.5297761,0.136363617 C30.6347761,0.136363617 30.7390987,0.160909072 30.8325826,0.207954526 L36.2519374,2.93522725 C36.4002922,3.01022725 36.5161309,3.13704544 36.5784535,3.29249998 L37.8045826,6.37772725 L42.8879374,7.65681816 C43.1887116,7.73249998 43.4007438,8.00522725 43.4007438,8.3181818 L43.4007438,8.3181818 Z M23.4352643,1.49999998 C23.4352643,1.49999998 24.1126837,3.57743081 24.1126837,4.56818163 C24.1126837,5.62288535 23.4352643,7.63636362 23.4352643,7.63636362 L22.0804256,7.63636362 C21.7064901,7.63636362 21.4030063,7.94113634 21.4030063,8.3181818 C21.4030063,8.69454544 21.7064901,8.99999998 22.0804256,8.99999998 L24.1126837,8.99999998 C24.4866192,8.99999998 25.5915907,7.38120138 25.5915907,4.56818163 C25.5915907,1.75516187 24.4866192,0.136363617 24.1126837,0.136363617 L2.0781632,0.136363617 C1.70422771,0.136363617 0.599256158,1.75516187 0.599256158,4.56818163 C0.599256158,7.38120138 1.70422771,8.99999998 2.0781632,8.99999998 L4.11042126,8.99999998 C4.48435675,8.99999998 4.78784062,8.69454544 4.78784062,8.3181818 C4.78784062,7.94113634 4.48435675,7.63636362 4.11042126,7.63636362 L2.75558255,7.63636362 C2.75558255,7.63636362 2.07816315,5.62288535 2.07816315,4.56818163 C2.07816315,3.57743081 2.75558255,1.49999998 2.75558255,1.49999998 L24.4330019,1.49999998" id="Semi-Copy-3" sketch:type="MSShapeGroup"></path>
                    <text id="HZMT" sketch:type="MSTextLayer" font-family="Arial Rounded MT Bold" font-size="7" font-weight="normal">
                        <tspan x="3" y="7">HZMT</tspan>
                    </text>
                </g>
            </g>
        </g>
    </g>
</svg>