<?xml version="1.0" encoding="UTF-8" standalone="no"?>
<svg width="50px" height="50px" viewBox="0 0 50 50" version="1.1" xmlns="http://www.w3.org/2000/svg" xmlns:xlink="http://www.w3.org/1999/xlink" xmlns:sketch="http://www.bohemiancoding.com/sketch/ns">
    <!-- Generator: Sketch 3.3.3 (12081) - http://www.bohemiancoding.com/sketch -->
    <title>tankHazLight</title>
    <desc>Created with Sketch.</desc>
    <defs></defs>
    <g id="Studies" stroke="none" stroke-width="1" fill="none" fill-rule="evenodd" sketch:type="MSPage">
        <g id="Artboard-5" sketch:type="MSArtboardGroup" transform="translate(-243.000000, -335.000000)"></g>
        <g id="tankHazLight" sketch:type="MSArtboardGroup" fill="#FFFFFF">
            <path d="M41.6588084,27.0454545 C40.6602922,27.0454545 39.7959051,27.5977273 39.3257761,28.4090909 L30.8200987,28.4090909 C30.4461632,28.4090909 30.1426793,28.7138636 30.1426793,29.0909091 C30.1426793,29.4672727 30.4461632,29.7727273 30.8200987,29.7727273 L38.9491309,29.7727273 C38.9491309,31.2768182 40.1644213,32.5 41.6588084,32.5 C43.152518,32.5 44.3684858,31.2768182 44.3684858,29.7727273 C44.3684858,28.2686364 43.152518,27.0454545 41.6588084,27.0454545 L41.6588084,27.0454545 Z M41.6588084,31.1363636 C40.9116148,31.1363636 40.3039696,30.5240909 40.3039696,29.7727273 C40.3039696,29.0206818 40.9116148,28.4090909 41.6588084,28.4090909 C42.4060019,28.4090909 43.0136471,29.0206818 43.0136471,29.7727273 C43.0136471,30.5240909 42.4060019,31.1363636 41.6588084,31.1363636 L41.6588084,31.1363636 Z M26.0781632,27.0454545 C25.26526,27.0454545 24.5431309,27.415 24.0459051,27.9877273 C23.5486793,27.415 22.8265503,27.0454545 22.0136471,27.0454545 C21.0151309,27.0454545 20.1507438,27.5977273 19.6806148,28.4090909 L15.9168729,28.4090909 C15.5429374,28.4090909 15.2394535,28.7138636 15.2394535,29.0909091 C15.2394535,29.4672727 15.5429374,29.7727273 15.9168729,29.7727273 L19.3039696,29.7727273 C19.3039696,31.2768182 20.51926,32.5 22.0136471,32.5 C22.8265503,32.5 23.5486793,32.1304545 24.0459051,31.5577273 C24.5431309,32.1304545 25.26526,32.5 26.0781632,32.5 C27.5725503,32.5 28.7878406,31.2768182 28.7878406,29.7727273 C28.7878406,28.2686364 27.5725503,27.0454545 26.0781632,27.0454545 L26.0781632,27.0454545 Z M22.0136471,31.1363636 C21.2664535,31.1363636 20.6588084,30.5240909 20.6588084,29.7727273 C20.6588084,29.0206818 21.2664535,28.4090909 22.0136471,28.4090909 C22.7608406,28.4090909 23.3684858,29.0206818 23.3684858,29.7727273 C23.3684858,30.5240909 22.7608406,31.1363636 22.0136471,31.1363636 L22.0136471,31.1363636 Z M26.0781632,31.1363636 C25.3309696,31.1363636 24.7233245,30.5240909 24.7233245,29.7727273 C24.7233245,29.0206818 25.3309696,28.4090909 26.0781632,28.4090909 C26.8253567,28.4090909 27.4330019,29.0206818 27.4330019,29.7727273 C27.4330019,30.5240909 26.8253567,31.1363636 26.0781632,31.1363636 L26.0781632,31.1363636 Z M11.1749374,27.0454545 C10.3620342,27.0454545 9.63990513,27.415 9.14267933,27.9877273 C8.64545352,27.415 7.92332449,27.0454545 7.11042126,27.0454545 C5.61603416,27.0454545 4.40074384,28.2686364 4.40074384,29.7727273 C4.40074384,31.2768182 5.61603416,32.5 7.11042126,32.5 C7.92332449,32.5 8.64545352,32.1304545 9.14267933,31.5577273 C9.63990513,32.1304545 10.3620342,32.5 11.1749374,32.5 C12.6686471,32.5 13.8846148,31.2768182 13.8846148,29.7727273 C13.8846148,28.2686364 12.6686471,27.0454545 11.1749374,27.0454545 L11.1749374,27.0454545 Z M7.11042126,31.1363636 C6.36322771,31.1363636 5.75558255,30.5240909 5.75558255,29.7727273 C5.75558255,29.0206818 6.36322771,28.4090909 7.11042126,28.4090909 C7.85761481,28.4090909 8.46525997,29.0206818 8.46525997,29.7727273 C8.46525997,30.5240909 7.85761481,31.1363636 7.11042126,31.1363636 L7.11042126,31.1363636 Z M11.1749374,31.1363636 C10.4277438,31.1363636 9.82009868,30.5240909 9.82009868,29.7727273 C9.82009868,29.0206818 10.4277438,28.4090909 11.1749374,28.4090909 C11.9221309,28.4090909 12.5297761,29.0206818 12.5297761,29.7727273 C12.5297761,30.5240909 11.9221309,31.1363636 11.1749374,31.1363636 L11.1749374,31.1363636 Z M35.5620342,25 C35.1880987,25 34.8846148,24.6945455 34.8846148,24.3181818 C34.8846148,23.9411364 35.1880987,23.6363636 35.5620342,23.6363636 L37.5942922,23.6363636 C37.9682277,23.6363636 38.2717116,23.9411364 38.2717116,24.3181818 C38.2717116,24.6945455 37.9682277,25 37.5942922,25 L35.5620342,25 L35.5620342,25 Z M46.4007438,25.6818182 L46.4007438,29.0909091 C46.4007438,29.4672727 46.09726,29.7727273 45.7233245,29.7727273 C45.349389,29.7727273 45.0459051,29.4672727 45.0459051,29.0909091 L45.0459051,26.2143182 L40.1393567,24.9788636 C39.9286793,24.9263636 39.7559374,24.775 39.6746471,24.5711364 L38.4160019,21.4027273 L33.3699051,18.8636364 L30.8200987,18.8636364 L30.8200987,25.6818182 C30.8200987,26.0581818 30.5166148,26.3636364 30.1426793,26.3636364 C29.7687438,26.3636364 29.46526,26.0581818 29.46526,25.6818182 L29.46526,18.1818182 C29.46526,17.8047727 29.7687438,17.5 30.1426793,17.5 L33.5297761,17.5 C33.6347761,17.5 33.7390987,17.5245455 33.8325826,17.5715909 L39.2519374,20.2988636 C39.4002922,20.3738636 39.5161309,20.5006818 39.5784535,20.6561364 L40.8045826,23.7413636 L45.8879374,25.0204545 C46.1887116,25.0961364 46.4007438,25.3688636 46.4007438,25.6818182 L46.4007438,25.6818182 Z M26.4352643,18.8636364 C26.4352643,18.8636364 27.1126837,20.9410672 27.1126837,21.931818 C27.1126837,22.9865217 26.4352643,25 26.4352643,25 L25.0804256,25 C24.7064901,25 24.4030063,25.3047727 24.4030063,25.6818182 C24.4030063,26.0581818 24.7064901,26.3636364 25.0804256,26.3636364 L27.1126837,26.3636364 C27.4866192,26.3636364 28.5915907,24.7448378 28.5915907,21.931818 C28.5915907,19.1187983 27.4866192,17.5 27.1126837,17.5 L5.0781632,17.5 C4.70422771,17.5 3.59925616,19.1187983 3.59925616,21.931818 C3.59925616,24.7448378 4.70422771,26.3636364 5.0781632,26.3636364 L7.11042126,26.3636364 C7.48435675,26.3636364 7.78784062,26.0581818 7.78784062,25.6818182 C7.78784062,25.3047727 7.48435675,25 7.11042126,25 L5.75558255,25 C5.75558255,25 5.07816315,22.9865217 5.07816315,21.931818 C5.07816315,20.9410672 5.75558255,18.8636364 5.75558255,18.8636364 L27.4330019,18.8636364" id="Semi-Copy-3" sketch:type="MSShapeGroup"></path>
            <text id="HZMT" sketch:type="MSTextLayer" font-family="Arial Rounded MT Bold" font-size="7" font-weight="normal">
                <tspan x="5.59925616" y="24.5">HZMT</tspan>
            </text>
        </g>
        <g id="hazMatDark" sketch:type="MSArtboardGroup" transform="translate(-49.000000, -49.000000)"></g>
        <g id="hazMatLight" sketch:type="MSArtboardGroup" transform="translate(-49.000000, 1.000000)"></g>
    </g>
</svg>