<?xml version="1.0" encoding="UTF-8" standalone="no"?>
<svg width="50px" height="50px" viewBox="0 0 50 50" version="1.1" xmlns="http://www.w3.org/2000/svg" xmlns:xlink="http://www.w3.org/1999/xlink" xmlns:sketch="http://www.bohemiancoding.com/sketch/ns">
    <!-- Generator: Sketch 3.3.3 (12081) - http://www.bohemiancoding.com/sketch -->
    <title>tankDark</title>
    <desc>Created with Sketch.</desc>
    <defs></defs>
    <g id="Studies" stroke="none" stroke-width="1" fill="none" fill-rule="evenodd" sketch:type="MSPage">
        <g id="Artboard-5" sketch:type="MSArtboardGroup" transform="translate(-96.000000, -286.000000)"></g>
        <g id="doubleDark" sketch:type="MSArtboardGroup" transform="translate(-49.000000, 0.000000)"></g>
        <g id="tankDark" sketch:type="MSArtboardGroup" fill="#4D4951">
            <path d="M41.6588084,27.5454545 C40.6602922,27.5454545 39.7959051,28.0977273 39.3257761,28.9090909 L30.8200987,28.9090909 C30.4461632,28.9090909 30.1426793,29.2138636 30.1426793,29.5909091 C30.1426793,29.9672727 30.4461632,30.2727273 30.8200987,30.2727273 L38.9491309,30.2727273 C38.9491309,31.7768182 40.1644213,33 41.6588084,33 C43.152518,33 44.3684858,31.7768182 44.3684858,30.2727273 C44.3684858,28.7686364 43.152518,27.5454545 41.6588084,27.5454545 L41.6588084,27.5454545 Z M41.6588084,31.6363636 C40.9116148,31.6363636 40.3039696,31.0240909 40.3039696,30.2727273 C40.3039696,29.5206818 40.9116148,28.9090909 41.6588084,28.9090909 C42.4060019,28.9090909 43.0136471,29.5206818 43.0136471,30.2727273 C43.0136471,31.0240909 42.4060019,31.6363636 41.6588084,31.6363636 L41.6588084,31.6363636 Z M26.0781632,27.5454545 C25.26526,27.5454545 24.5431309,27.915 24.0459051,28.4877273 C23.5486793,27.915 22.8265503,27.5454545 22.0136471,27.5454545 C21.0151309,27.5454545 20.1507438,28.0977273 19.6806148,28.9090909 L15.9168729,28.9090909 C15.5429374,28.9090909 15.2394535,29.2138636 15.2394535,29.5909091 C15.2394535,29.9672727 15.5429374,30.2727273 15.9168729,30.2727273 L19.3039696,30.2727273 C19.3039696,31.7768182 20.51926,33 22.0136471,33 C22.8265503,33 23.5486793,32.6304545 24.0459051,32.0577273 C24.5431309,32.6304545 25.26526,33 26.0781632,33 C27.5725503,33 28.7878406,31.7768182 28.7878406,30.2727273 C28.7878406,28.7686364 27.5725503,27.5454545 26.0781632,27.5454545 L26.0781632,27.5454545 Z M22.0136471,31.6363636 C21.2664535,31.6363636 20.6588084,31.0240909 20.6588084,30.2727273 C20.6588084,29.5206818 21.2664535,28.9090909 22.0136471,28.9090909 C22.7608406,28.9090909 23.3684858,29.5206818 23.3684858,30.2727273 C23.3684858,31.0240909 22.7608406,31.6363636 22.0136471,31.6363636 L22.0136471,31.6363636 Z M26.0781632,31.6363636 C25.3309696,31.6363636 24.7233245,31.0240909 24.7233245,30.2727273 C24.7233245,29.5206818 25.3309696,28.9090909 26.0781632,28.9090909 C26.8253567,28.9090909 27.4330019,29.5206818 27.4330019,30.2727273 C27.4330019,31.0240909 26.8253567,31.6363636 26.0781632,31.6363636 L26.0781632,31.6363636 Z M11.1749374,27.5454545 C10.3620342,27.5454545 9.63990513,27.915 9.14267933,28.4877273 C8.64545352,27.915 7.92332449,27.5454545 7.11042126,27.5454545 C5.61603416,27.5454545 4.40074384,28.7686364 4.40074384,30.2727273 C4.40074384,31.7768182 5.61603416,33 7.11042126,33 C7.92332449,33 8.64545352,32.6304545 9.14267933,32.0577273 C9.63990513,32.6304545 10.3620342,33 11.1749374,33 C12.6686471,33 13.8846148,31.7768182 13.8846148,30.2727273 C13.8846148,28.7686364 12.6686471,27.5454545 11.1749374,27.5454545 L11.1749374,27.5454545 Z M7.11042126,31.6363636 C6.36322771,31.6363636 5.75558255,31.0240909 5.75558255,30.2727273 C5.75558255,29.5206818 6.36322771,28.9090909 7.11042126,28.9090909 C7.85761481,28.9090909 8.46525997,29.5206818 8.46525997,30.2727273 C8.46525997,31.0240909 7.85761481,31.6363636 7.11042126,31.6363636 L7.11042126,31.6363636 Z M11.1749374,31.6363636 C10.4277438,31.6363636 9.82009868,31.0240909 9.82009868,30.2727273 C9.82009868,29.5206818 10.4277438,28.9090909 11.1749374,28.9090909 C11.9221309,28.9090909 12.5297761,29.5206818 12.5297761,30.2727273 C12.5297761,31.0240909 11.9221309,31.6363636 11.1749374,31.6363636 L11.1749374,31.6363636 Z M35.5620342,25.5 C35.1880987,25.5 34.8846148,25.1945455 34.8846148,24.8181818 C34.8846148,24.4411364 35.1880987,24.1363636 35.5620342,24.1363636 L37.5942922,24.1363636 C37.9682277,24.1363636 38.2717116,24.4411364 38.2717116,24.8181818 C38.2717116,25.1945455 37.9682277,25.5 37.5942922,25.5 L35.5620342,25.5 L35.5620342,25.5 Z M46.4007438,26.1818182 L46.4007438,29.5909091 C46.4007438,29.9672727 46.09726,30.2727273 45.7233245,30.2727273 C45.349389,30.2727273 45.0459051,29.9672727 45.0459051,29.5909091 L45.0459051,26.7143182 L40.1393567,25.4788636 C39.9286793,25.4263636 39.7559374,25.275 39.6746471,25.0711364 L38.4160019,21.9027273 L33.3699051,19.3636364 L30.8200987,19.3636364 L30.8200987,26.1818182 C30.8200987,26.5581818 30.5166148,26.8636364 30.1426793,26.8636364 C29.7687438,26.8636364 29.46526,26.5581818 29.46526,26.1818182 L29.46526,18.6818182 C29.46526,18.3047727 29.7687438,18 30.1426793,18 L33.5297761,18 C33.6347761,18 33.7390987,18.0245455 33.8325826,18.0715909 L39.2519374,20.7988636 C39.4002922,20.8738636 39.5161309,21.0006818 39.5784535,21.1561364 L40.8045826,24.2413636 L45.8879374,25.5204545 C46.1887116,25.5961364 46.4007438,25.8688636 46.4007438,26.1818182 L46.4007438,26.1818182 Z M26.4352643,19.3636364 C26.4352643,19.3636364 27.1126837,21.4410672 27.1126837,22.431818 C27.1126837,23.4865217 26.4352643,25.5 26.4352643,25.5 L25.0804256,25.5 C24.7064901,25.5 24.4030063,25.8047727 24.4030063,26.1818182 C24.4030063,26.5581818 24.7064901,26.8636364 25.0804256,26.8636364 L27.1126837,26.8636364 C27.4866192,26.8636364 28.5915907,25.2448378 28.5915907,22.431818 C28.5915907,19.6187983 27.4866192,18 27.1126837,18 L5.0781632,18 C4.70422771,18 3.59925616,19.6187983 3.59925616,22.431818 C3.59925616,25.2448378 4.70422771,26.8636364 5.0781632,26.8636364 L7.11042126,26.8636364 C7.48435675,26.8636364 7.78784062,26.5581818 7.78784062,26.1818182 C7.78784062,25.8047727 7.48435675,25.5 7.11042126,25.5 L5.75558255,25.5 C5.75558255,25.5 5.07816315,23.4865217 5.07816315,22.431818 C5.07816315,21.4410672 5.75558255,19.3636364 5.75558255,19.3636364 L27.4330019,19.3636364" id="Semi-Copy-3" sketch:type="MSShapeGroup"></path>
        </g>
    </g>
</svg>