<?xml version="1.0" encoding="UTF-8" standalone="no"?>
<svg width="147px" height="177px" viewBox="0 0 147 177" version="1.1" xmlns="http://www.w3.org/2000/svg" xmlns:xlink="http://www.w3.org/1999/xlink" xmlns:sketch="http://www.bohemiancoding.com/sketch/ns">
    <!-- Generator: Sketch 3.3.3 (12081) - http://www.bohemiancoding.com/sketch -->
    <title>Group</title>
    <desc>Created with Sketch.</desc>
    <defs>
        <linearGradient x1="50%" y1="0%" x2="50%" y2="69.9916295%" id="linearGradient-1">
            <stop stop-color="#FFFFFF" offset="0%"></stop>
            <stop stop-color="#707070" offset="100%"></stop>
        </linearGradient>
        <path id="path-2" d="M142.863998,29.1471055 C142.811744,26.8625223 141.180657,24.8918674 138.902455,24.5795778 C128.283364,23.1159838 117.810305,20.5696766 107.543698,16.7962165 C97.3256134,13.0407821 86.0197488,7.79834371 73.8255579,0.893794317 C72.2772855,0.0166211096 70.820925,0.0112368065 69.2742855,0.893794317 C57.1645416,7.79483221 45.9396248,13.0262679 35.6408254,16.7962165 C25.3709527,20.5553965 14.9030261,23.1178566 4.36838173,24.5795778 C2.08994617,24.8953789 0.491285481,26.8625223 0.237711256,29.1471055 C-0.772853181,72.5413112 8.69873899,108.047279 28.5610424,135.647217 C39.3814535,150.681595 52.9225971,162.884533 69.2742855,172.189311 C70.5384241,173.120562 72.5203622,173.050097 73.9946852,172.189311 C90.2225024,162.729325 103.745684,150.614877 114.541134,135.647217 C134.429798,108.065304 143.824175,72.5429499 142.863998,29.1471055 L142.863998,29.1471055 Z"></path>
        <path id="path-4" d="M23.3201098,85.6104849 L23.3201098,22.6786906 L0.132543135,22.6786906 L0.132543135,0.120831806 L72.5485605,0.120831806 L72.5485605,22.6786906 L49.4893387,22.6786906 L49.4893387,85.6104849 L23.3201098,85.6104849 L23.3201098,85.6104849 Z"></path>
        <linearGradient x1="50%" y1="0%" x2="50%" y2="100%" id="linearGradient-6">
            <stop stop-color="#FFFFFF" offset="0%"></stop>
            <stop stop-color="#888888" offset="100%"></stop>
        </linearGradient>
    </defs>
    <g id="Page-1" stroke="none" stroke-width="1" fill="none" fill-rule="evenodd" sketch:type="MSPage">
        <g id="Group" sketch:type="MSLayerGroup" transform="translate(2.000000, 1.000000)">
            <g id="shield" transform="translate(0.009206, 0.881127)">
                <mask id="mask-3" sketch:name="Mask" fill="white">
                    <use xlink:href="#path-2"></use>
                </mask>
                <use id="Mask" stroke="url(#linearGradient-1)" stroke-width="3" fill="#4495BD" sketch:type="MSShapeGroup" xlink:href="#path-2"></use>
            </g>
            <path d="M107.515731,44.8486511 L36.3338391,61.7732361 L59.576906,81.3016034 L59.576906,108.641318 L104.105021,149.38081 L109.547893,144.021689 C109.547893,144.021689 113.700217,139.38924 117.851166,132.805445 C122.70869,125.100951 127.806673,114.962671 129.903304,110.046411 C133.79159,100.929012 138.335974,82.5649749 138.335974,82.5649749 L107.515731,44.8486511 Z" id="Shadow-Copy" fill="#206B89" sketch:type="MSShapeGroup"></path>
            <g id="Group-827-Copy" transform="translate(36.333839, 44.848651)">
                <mask id="mask-5" sketch:name="Clip 826" fill="white">
                    <use xlink:href="#path-4"></use>
                </mask>
                <g id="Clip-826"></g>
                <path d="M-9.10089612,-9.01449349 L81.7819998,-9.01449349 L81.7819998,94.7458102 L-9.10089612,94.7458102 L-9.10089612,-9.01449349 Z" id="Fill-825" fill="#FFFFFF" sketch:type="MSShapeGroup" mask="url(#mask-5)"></path>
            </g>
            <text id="2" fill="url(#linearGradient-6)" sketch:type="MSTextLayer" font-family=".Helvetica Neue DeskInterface" font-size="36" font-weight="bold">
                <tspan x="97.0815661" y="118.999517" fill="#FFFFFF">2</tspan>
            </text>
        </g>
    </g>
</svg>